# xmcd
#
# Track frame offsets:
#	150
#	12047
#	22611
#	30868
#	42578
#	52387
#	60028
#	72474
#	84575
#	94709
#	106097
#	113731
#	122109
#	131013
#
# Disc length: 1847 seconds
#
# Revision: 0
# Processed by: cddbd v1.5.2PL0 Copyright (c) Steve Scherf et al.
# Submitted via: audiograbber 1.83.01
#
DISCID=a907350e
DTITLE=Dale Watson and The Texas Two - The Sun Sessions
DYEAR=2011
DGENRE=Country
TTITLE0=Down Down Down Down Down
TTITLE1=Jonny at the Door
TTITLE2=Drive Drive Drive
TTITLE3=Elbow Grease, Spackle and Pine Sol
TTITLE4=Gothenburg Train
TTITLE5=The Hand of Jesus
TTITLE6=My Baby Makes Me Gravy
TTITLE7=Her Love
TTITLE8=Ponder Why I Ponder Why
TTITLE9=George O'Dwyer
TTITLE10=I've Done That Before
TTITLE11=Big Daddy
TTITLE12=If You Know What's Good For You
TTITLE13=Lord I'm Free
EXTD=
EXTT0=
EXTT1=
EXTT2=
EXTT3=
EXTT4=
EXTT5=
EXTT6=
EXTT7=
EXTT8=
EXTT9=
EXTT10=
EXTT11=
EXTT12=
EXTT13=
PLAYORDER=
